# xmcd
#
# Track frame offsets:
# 150
# 16349
# 37738
# 54960
# 71900
# 85668
# 100884
# 116262
# 130202
#
# Disc length: 1979 seconds
#
#
# Revision: 1
# Processed by: cddbd v1.5.1PL0 Copyright (c) Steve Scherf et al.
# Submitted via: HACP 1.20
#
DISCID=6707b909
DTITLE=John Caugar Mellencamp - Uh - Huh
DYEAR=1900
DGENRE=Blues
TTITLE0=Crumblin' Down
TTITLE1=Pink Houses
TTITLE2=Authority Song
TTITLE3=Warmer Place To Sleep
TTITLE4=Jackie O
TTITLE5=Play Guitar
TTITLE6=Serious Business
TTITLE7=Lovin' Mother For Ya
TTITLE8=Golden Gates
EXTD=
EXTT0=
EXTT1=
EXTT2=
EXTT3=
EXTT4=
EXTT5=
EXTT6=
EXTT7=
EXTT8=
PLAYORDER=
